<svg xmlns="http://www.w3.org/2000/svg" width="151" height="31" viewBox="0 0 151 31" fill="none" style="opacity: 0.3;">
<g filter="url(#filter0_d)">
<path d="M143.501 22.9793C143.216 23.2647 142.876 23.4905 142.503 23.6436C142.129 23.7967 141.729 23.8741 141.325 23.8712C133.204 23.8066 129.154 19.455 125.556 15.6333C122.278 12.1392 119.688 9.36877 114.186 9.33C108.684 9.29122 106.065 12.0142 102.734 15.4653C99.0851 19.2438 94.9575 23.5265 86.8404 23.4662C78.7232 23.4058 74.6689 19.05 71.0671 15.2326C67.7926 11.7341 65.2075 8.96809 59.7056 8.92931C54.2037 8.89053 51.5756 11.6135 48.2451 15.0646C44.6045 18.8431 40.4727 23.1214 32.3512 23.0654C24.2297 23.0094 20.1797 18.6492 16.5779 14.8319C13.3034 11.3334 10.7184 8.56736 5.21215 8.52428C4.42642 8.48528 3.68622 8.14382 3.14653 7.57143C2.60685 6.99905 2.30952 6.24009 2.31676 5.45343C2.324 4.66676 2.63519 3.91343 3.18532 3.35107C3.73544 2.7887 4.48185 2.46092 5.26816 2.43638C13.3853 2.4967 17.4396 6.85258 21.0372 10.6742C24.3159 14.1684 26.9053 16.9388 32.4072 16.9775C37.9091 17.0163 40.5416 14.2891 43.8677 10.8423C47.5084 7.06373 51.6359 2.78109 59.7573 2.8371C67.8788 2.89311 71.9288 7.25332 75.5263 11.075C78.8051 14.5778 81.3945 17.3395 86.8964 17.3783C92.3983 17.417 95.0265 14.6941 98.3483 11.243C101.993 7.46873 106.125 3.18178 114.242 3.2421C122.359 3.30241 126.414 7.65832 130.016 11.4756C133.29 14.9741 135.875 17.7402 141.377 17.779C141.979 17.7816 142.567 17.9627 143.067 18.2995C143.566 18.6363 143.955 19.1136 144.183 19.6711C144.411 20.2286 144.469 20.8412 144.349 21.4316C144.229 22.022 143.937 22.5636 143.51 22.9879L143.501 22.9793Z" fill="url(#paint0_linear)"/>
<path d="M142.881 24.5672C143.065 24.4918 143.243 24.4033 143.413 24.3023L143.507 24.3968L144.213 23.6964C144.781 23.133 145.168 22.4139 145.327 21.6302C145.487 20.8465 145.41 20.0331 145.107 19.2929C144.804 18.5527 144.288 17.9191 143.625 17.472C142.963 17.0253 142.183 16.7849 141.384 16.7809C138.822 16.7628 136.987 16.1169 135.405 15.0879C133.782 14.0326 132.4 12.563 130.744 10.7936L130.742 10.7906L130.637 10.6793C127.05 6.87725 122.739 2.30707 114.25 2.24399C105.712 2.18055 101.32 6.7289 97.6741 10.5043L97.6303 10.5496L97.6292 10.5508C95.9497 12.2956 94.5465 13.7439 92.9084 14.7745C91.3109 15.7795 89.4655 16.3982 86.9034 16.3801C84.3415 16.3621 82.5051 15.717 80.9213 14.6885C79.297 13.6337 77.9129 12.164 76.255 10.3929L76.2531 10.3908L76.1498 10.2811C72.567 6.47423 68.2596 1.89758 59.7642 1.83899C51.2131 1.78001 46.8251 6.33427 43.1799 10.1176L43.1495 10.1492C41.4675 11.8921 40.0621 13.3406 38.422 14.372C36.8226 15.3779 34.976 15.9975 32.4142 15.9794C29.853 15.9614 28.0167 15.3145 26.4325 14.2848C24.8076 13.2286 23.4235 11.7587 21.765 9.99122L21.7639 9.99005C21.7331 9.9573 21.7022 9.92448 21.6713 9.89161C18.0857 6.08203 13.7744 1.50143 5.27557 1.43827L5.2563 1.43813L5.23702 1.43873C4.1931 1.47131 3.20218 1.90647 2.47181 2.65308C1.74142 3.39972 1.32828 4.39989 1.31867 5.44424C1.30907 6.48862 1.7038 7.49624 2.42031 8.25617C3.1368 9.01609 4.11951 9.46941 5.16266 9.52118L5.18349 9.52222L5.20434 9.52238C7.76837 9.54244 9.60482 10.1895 11.1877 11.219C12.8112 12.2749 14.1931 13.7446 15.8491 15.514L15.8519 15.5169C15.8903 15.5576 15.9289 15.5985 15.9675 15.6394C19.5514 19.4388 23.8588 24.005 32.3443 24.0635C40.9038 24.1226 45.2961 19.5639 48.9441 15.7776L48.9634 15.7577C50.6475 14.0125 52.0528 12.5641 53.6924 11.5332C55.291 10.5281 57.1365 9.90936 59.6986 9.92742C62.2601 9.94547 64.0953 10.5914 65.6775 11.6203C67.3004 12.6757 68.6822 14.1453 70.3383 15.9147L70.3411 15.9176L70.4461 16.0289C74.0328 19.831 78.344 24.4012 86.8329 24.4643C95.3699 24.5277 99.7581 19.9839 103.408 16.2043L103.452 16.1587L103.453 16.1584C105.137 14.4127 106.54 12.9644 108.178 11.9336C109.774 10.9287 111.617 10.3101 114.179 10.3281C116.74 10.3462 118.577 10.993 120.161 12.0228C121.786 13.0789 123.17 14.5488 124.828 16.3163L124.83 16.3175L124.922 16.416C128.508 20.2258 132.815 24.8016 141.317 24.8693H141.318C141.854 24.8731 142.385 24.7704 142.881 24.5672Z" stroke="#161A2B" stroke-width="1.99626"/>
</g>
<defs>
<filter id="filter0_d" x="0.320312" y="0.439941" width="150.079" height="29.9461" filterUnits="userSpaceOnUse" color-interpolation-filters="sRGB">
<feFlood flood-opacity="0" result="BackgroundImageFix"/>
<feColorMatrix in="SourceAlpha" type="matrix" values="0 0 0 0 0 0 0 0 0 0 0 0 0 0 0 0 0 0 127 0" result="hardAlpha"/>
<feColorMatrix type="matrix" values="0 0 0 0 0.0862745 0 0 0 0 0.101961 0 0 0 0 0.168627 0 0 0 1 0"/>
<feBlend mode="normal" in2="BackgroundImageFix" result="effect1_dropShadow"/>
<feBlend mode="normal" in="SourceGraphic" in2="effect1_dropShadow" result="shape"/>
</filter>
<linearGradient id="paint0_linear" x1="1.05469" y1="5.48145" x2="81.0358" y2="85.4622" gradientUnits="userSpaceOnUse">
<stop stop-color="#F0047F"/>
<stop offset="1" stop-color="#FC814A"/>
</linearGradient>
</defs>
</svg>